<svg width="23" height="27" viewBox="0 0 23 27" fill="none" xmlns="http://www.w3.org/2000/svg">
<g clip-path="url(#clip0_14_43)">
<path d="M0 5C0 2.23858 2.23858 0 5 0H18C20.7614 0 23 2.23858 23 5V22C23 24.7614 20.7614 27 18 27H5C2.23858 27 0 24.7614 0 22V5Z" fill="#FAF3F3"/>
<path d="M16.2917 7.875L14.9404 9.46125L17.4129 12.375H7.66666V14.625H17.4129L14.9404 17.5275L16.2917 19.125L21.0833 13.5L16.2917 7.875ZM3.83332 5.625H11.5V3.375H3.83332C2.77916 3.375 1.91666 4.3875 1.91666 5.625V21.375C1.91666 22.6125 2.77916 23.625 3.83332 23.625H11.5V21.375H3.83332V5.625Z" fill="black"/>
</g>
<defs>
<clipPath id="clip0_14_43">
<path d="M0 5C0 2.23858 2.23858 0 5 0H18C20.7614 0 23 2.23858 23 5V22C23 24.7614 20.7614 27 18 27H5C2.23858 27 0 24.7614 0 22V5Z" fill="white"/>
</clipPath>
</defs>
</svg>
